<?xml version="1.0" encoding="utf-8"?>
<!-- Generator: Adobe Illustrator 17.0.1, SVG Export Plug-In . SVG Version: 6.00 Build 0)  -->
<!DOCTYPE svg PUBLIC "-//W3C//DTD SVG 1.1//EN" "http://www.w3.org/Graphics/SVG/1.1/DTD/svg11.dtd">
<svg version="1.1" id="Layer_1" xmlns="http://www.w3.org/2000/svg" xmlns:xlink="http://www.w3.org/1999/xlink" x="0px" y="0px"
	 width="15px" height="40px" viewBox="0 -5 15 40" enable-background="new 0 -5 15 40" xml:space="preserve">
<g>
	<g>
		<path fill="#227E93" d="M86.75,15h-15V0h15V15z M74.057,12.693h10.384V2.307H74.057V12.693z"/>
	</g>
	<g>
		<path fill="#227E93" d="M86.75,30h-15V15h15V30z M74.057,27.693h10.384V17.308H74.057V27.693z"/>
	</g>
	<path fill="#333333" d="M78.879,26.952l-3.987-4.512c-0.147-0.167-0.132-0.42,0.035-0.569c0.167-0.147,0.42-0.131,0.567,0.035
		l3.267,3.697l4.467-7.293c0.116-0.191,0.365-0.247,0.552-0.133c0.189,0.115,0.249,0.365,0.133,0.554L78.879,26.952z"/>
</g>
<g>
	<path fill="#227E93" d="M15,15H0V0h15V15z M2.307,12.693h10.384V2.307H2.307V12.693z"/>
</g>
<g>
	<path fill="#227E93" d="M15,35H0V20h15V35z M2.307,32.693h10.384V22.308H2.307V32.693z"/>
</g>
<path fill="#333333" d="M7.129,31.952L3.142,27.44c-0.147-0.167-0.132-0.42,0.035-0.569c0.167-0.147,0.42-0.131,0.567,0.035
	l3.267,3.697l4.467-7.293c0.116-0.191,0.364-0.247,0.552-0.133c0.189,0.115,0.249,0.365,0.133,0.554L7.129,31.952z"/>
</svg>
