<?xml version="1.0" encoding="utf-8"?>
<!-- Generator: Adobe Illustrator 17.0.0, SVG Export Plug-In . SVG Version: 6.00 Build 0)  -->
<!DOCTYPE svg PUBLIC "-//W3C//DTD SVG 1.1//EN" "http://www.w3.org/Graphics/SVG/1.1/DTD/svg11.dtd">
<svg version="1.1" xmlns="http://www.w3.org/2000/svg" xmlns:xlink="http://www.w3.org/1999/xlink" x="0px" y="0px" width="40px"
	 height="40.002px" viewBox="0 0 40 40.002" enable-background="new 0 0 40 40.002" xml:space="preserve">
<g id="HP">
</g>
<g id="base_x5F_layer">
	<g>
		<path fill="#FFFFFF" d="M20,39.091c-10.526,0-19.089-8.564-19.089-19.089S9.474,0.912,20,0.912S39.09,9.475,39.09,20.001
			S30.526,39.091,20,39.091z"/>
		<path fill="#333333" d="M20,1.317c10.302,0,18.684,8.381,18.684,18.684S30.302,38.685,20,38.685
			c-10.302,0-18.684-8.381-18.684-18.684S9.698,1.317,20,1.317 M20,0.506c-10.767,0-19.495,8.728-19.495,19.495
			S9.233,39.496,20,39.496s19.495-8.728,19.495-19.495S30.767,0.506,20,0.506L20,0.506z"/>
	</g>
</g>
</svg>
