<?xml version="1.0" encoding="utf-8"?>
<!-- Generator: Adobe Illustrator 17.0.1, SVG Export Plug-In . SVG Version: 6.00 Build 0)  -->
<!DOCTYPE svg PUBLIC "-//W3C//DTD SVG 1.0//EN" "http://www.w3.org/TR/2001/REC-SVG-20010904/DTD/svg10.dtd">
<svg version="1.0" id="Layer_1" xmlns="http://www.w3.org/2000/svg" xmlns:xlink="http://www.w3.org/1999/xlink" x="0px" y="0px"
	 width="60px" height="60px" viewBox="0 0 47.875 47.859" enable-background="new 0 0 47.875 47.859" xml:space="preserve">
<g>
	<circle fill="none" stroke="#4D4D4D" stroke-width="0.8364" stroke-miterlimit="10" cx="23.951" cy="23.926" r="23.861"/>
	<g>
		<g>
			<path fill="#BF4B4B" d="M23.951,49.287C9.967,49.287-1.41,37.91-1.41,23.926S9.967-1.436,23.951-1.436
				c13.984,0,25.361,11.377,25.361,25.361S37.935,49.287,23.951,49.287z M32.48,32.332v-14.13l-8.418-6.464l-8.64,6.476v14.119
				H32.48z"/>
			<path fill="#FFFFFF" d="M23.951,0.064c13.178,0,23.861,10.683,23.861,23.861S37.129,47.787,23.951,47.787
				c-13.179,0-23.861-10.683-23.861-23.861S10.773,0.064,23.951,0.064 M13.922,33.832H33.98V17.463l-3.689-2.833v-3.776h-1.46v2.655
				l-4.758-3.654l-10.151,7.608V33.832 M23.951-2.936C9.14-2.936-2.91,9.114-2.91,23.926c0,14.811,12.05,26.861,26.861,26.861
				c14.811,0,26.861-12.05,26.861-26.861C50.812,9.114,38.762-2.936,23.951-2.936L23.951-2.936z M16.922,18.963l7.129-5.343
				l2.953,2.267l0.689,0.529l0.771,0.592l2.516,1.932v11.89H16.922V18.963L16.922,18.963z"/>
		</g>
		<rect x="21.684" y="21.728" fill="#1A1A1A" width="4.534" height="4.534"/>
	</g>
</g>
</svg>
