<?xml version="1.0" encoding="utf-8"?>
<!-- Generator: Adobe Illustrator 17.0.1, SVG Export Plug-In . SVG Version: 6.00 Build 0)  -->
<!DOCTYPE svg PUBLIC "-//W3C//DTD SVG 1.0//EN" "http://www.w3.org/TR/2001/REC-SVG-20010904/DTD/svg10.dtd">
<svg version="1.0" id="Layer_1" xmlns="http://www.w3.org/2000/svg" xmlns:xlink="http://www.w3.org/1999/xlink" x="0px" y="0px"
	 width="60px" height="60px" viewBox="0 0 46.424 46.424" enable-background="new 0 0 46.424 46.424" xml:space="preserve">
<g>
	<circle fill="#F2F2F2" cx="23.212" cy="23.212" r="23.212"/>
	<g>
		<g>
			<g>
				<g>
					<path fill="#808080" d="M21.516,14.246l-9.138,4.039c-0.014-0.001-0.025-0.007-0.047-0.001l-0.017,0
						c-0.673,0.076-0.745,0.568-0.745,0.568c-0.002,0.007-0.004,0.015-0.006,0.022L8.407,31.89H8.249v0.264
						c0,1.759,1.824,3.19,4.065,3.19s4.065-1.431,4.065-3.19V31.89h-0.125L13.29,19.84l8.872-3.92v22.024h2.06V15.744
						c0-0.946,0.012-0.842,0.475-1.068l8.688-3.897L30.62,22.086h-0.157v0.264c0,1.759,1.824,3.19,4.065,3.19
						s4.065-1.431,4.065-3.19v-0.264h-0.125L35.311,9.07c-0.085-0.347-0.393-0.59-0.767-0.59l-0.018,0
						c-0.232,0-0.448,0.103-0.594,0.279L23.88,13.201 M14.664,31.89H9.997l2.333-9.621L14.664,31.89z M32.21,22.086l2.333-9.621
						l2.333,9.621H32.21z"/>
				</g>
			</g>
		</g>
	</g>
</g>
</svg>
