<?xml version="1.0" encoding="utf-8"?>
<!-- Generator: Adobe Illustrator 17.0.1, SVG Export Plug-In . SVG Version: 6.00 Build 0)  -->
<!DOCTYPE svg PUBLIC "-//W3C//DTD SVG 1.0//EN" "http://www.w3.org/TR/2001/REC-SVG-20010904/DTD/svg10.dtd">
<svg version="1.0" id="Layer_1" xmlns="http://www.w3.org/2000/svg" xmlns:xlink="http://www.w3.org/1999/xlink" x="0px" y="0px"
	 width="60px" height="60px" viewBox="0 0 46.424 46.424" enable-background="new 0 0 46.424 46.424" xml:space="preserve">
<g>
	<circle fill="#F2F2F2" cx="23.212" cy="23.212" r="23.212"/>
	<g id="_x38_7_5_">
		<g>
			<g>
				<path fill="#808080" d="M15.111,19.74c-0.844,0-0.844,1.311,0,1.311c3.363,0,6.725,0,10.088,0c0.845,0,0.845-1.311,0-1.311
					C21.836,19.74,18.474,19.74,15.111,19.74z"/>
				<path fill="#808080" d="M25.199,22.841c-3.363,0-6.725,0-10.088,0c-0.844,0-0.844,1.31,0,1.31c3.363,0,6.725,0,10.088,0
					C26.045,24.151,26.045,22.841,25.199,22.841z"/>
				<path fill="#808080" d="M25.199,25.713c-3.363,0-6.725,0-10.088,0c-0.844,0-0.844,1.31,0,1.31c3.363,0,6.725,0,10.088,0
					C26.045,27.023,26.045,25.713,25.199,25.713z"/>
				<path fill="#808080" d="M25.199,28.814c-3.363,0-6.725,0-10.088,0c-0.844,0-0.844,1.31,0,1.31c3.363,0,6.725,0,10.088,0
					C26.045,30.124,26.045,28.814,25.199,28.814z"/>
				<path fill="#808080" d="M25.006,31.74c-3.364,0-6.727,0-10.089,0c-0.844,0-0.844,1.31,0,1.31c3.362,0,6.726,0,10.089,0
					C25.849,33.05,25.849,31.74,25.006,31.74z"/>
				<path fill="#808080" d="M10.737,13.031v24.46h18.837V16.425l-3.5-3.394L10.737,13.031z M27.945,35.863H12.366V14.66h12.869
					v2.584h2.709L27.945,35.863L27.945,35.863z"/>
				<polygon fill="#808080" points="13.921,9.283 13.921,12.114 15.551,12.114 15.551,10.911 28.42,10.911 28.42,13.495 
					31.129,13.495 31.129,32.114 30.414,32.114 30.414,33.743 32.758,33.743 32.758,12.676 29.258,9.283 				"/>
				<polygon fill="#808080" points="32.604,5.874 17.268,5.874 17.268,8.706 18.896,8.706 18.896,7.503 31.765,7.503 31.765,10.087 
					34.475,10.087 34.475,28.706 33.76,28.706 33.76,30.335 36.105,30.335 36.105,9.268 				"/>
			</g>
		</g>
	</g>
</g>
</svg>
