<?xml version="1.0" encoding="utf-8"?>
<!-- Generator: Adobe Illustrator 17.0.1, SVG Export Plug-In . SVG Version: 6.00 Build 0)  -->
<!DOCTYPE svg PUBLIC "-//W3C//DTD SVG 1.1//EN" "http://www.w3.org/Graphics/SVG/1.1/DTD/svg11.dtd">
<svg version="1.1" id="Layer_1" xmlns="http://www.w3.org/2000/svg" xmlns:xlink="http://www.w3.org/1999/xlink" x="0px" y="0px"
	 width="35px" height="70px" viewBox="71.75 0 25 50" enable-background="new 71.75 0 25 50" xml:space="preserve">
<g>
	<g>
		<path fill="#227E93" d="M96.75,25h-25V0h25V25z M75.596,21.154h17.308V3.846H75.596V21.154z"/>
	</g>
	<g>
		<path fill="#227E93" d="M96.75,50h-25V25h25V50z M75.596,46.154h17.308V28.846H75.596V46.154z"/>
	</g>
	<g>
		<path fill="#FFFFFF" d="M83.633,44.92l-6.644-7.52c-0.246-0.278-0.22-0.701,0.058-0.947s0.7-0.218,0.945,0.058l5.446,6.163
			l7.444-12.156c0.192-0.317,0.607-0.413,0.92-0.222c0.316,0.193,0.415,0.607,0.222,0.922L83.633,44.92z"/>
	</g>
</g>
</svg>
