<?xml version="1.0" encoding="utf-8"?>
<!-- Generator: Adobe Illustrator 17.0.1, SVG Export Plug-In . SVG Version: 6.00 Build 0)  -->
<!DOCTYPE svg PUBLIC "-//W3C//DTD SVG 1.0//EN" "http://www.w3.org/TR/2001/REC-SVG-20010904/DTD/svg10.dtd">
<svg version="1.0" xmlns="http://www.w3.org/2000/svg" xmlns:xlink="http://www.w3.org/1999/xlink" x="0px" y="0px"
	 width="20px" height="20px" viewBox="0 0 15.906 16.201" enable-background="new 0 0 15.906 16.201" xml:space="preserve">
<g id="HP">
</g>
<g id="base_x5F_layer">
	<g id="balance">
	</g>
	<g id="balance_1_">
	</g>
	<g>
		<path fill="#BA3636" d="M5.852,14.213c0.147,0.356,0.389,0.599,0.73,0.74c0.349,0.145,0.689,0.139,1.032-0.01
			c0.342-0.148,0.587-0.384,0.729-0.725L5.85,13.185C5.709,13.526,5.709,13.869,5.852,14.213z"/>
		<path fill="#BA3636" d="M14.937,15.613c-0.226-1.098-0.281-2.199-0.177-3.289c0.104-1.087,0.42-2.594,0.942-4.518
			c0.304-1.12,0.241-2.198-0.001-2.978c-0.12-0.388-0.285-0.762-0.505-1.123c-0.431-0.709-0.844-1.13-1.358-1.543
			c0.077-0.415,0.011-0.811-0.199-1.195c-0.207-0.378-0.507-0.658-0.913-0.826c-0.398-0.165-0.809-0.183-1.221-0.06
			c-0.413,0.124-0.739,0.359-0.978,0.707C9.871,0.716,9.28,0.716,8.467,0.913C8.064,1.011,7.68,1.158,7.315,1.349
			c-0.718,0.377-1.522,1.1-2.101,2.106C4.221,5.184,3.371,6.466,2.674,7.311C1.978,8.153,1.163,8.892,0.229,9.512
			C0.139,9.571,0.072,9.637,0.035,9.727C0.005,9.8-0.007,9.872,0.004,9.961c0.024,0.192,0.122,0.326,0.3,0.4l13.978,5.798
			c0.179,0.074,0.342,0.047,0.495-0.07c0.063-0.06,0.109-0.126,0.14-0.199C14.954,15.801,14.957,15.711,14.937,15.613z"/>
	</g>
</g>
</svg>
