<?xml version="1.0" encoding="utf-8"?>
<!-- Generator: Adobe Illustrator 17.0.1, SVG Export Plug-In . SVG Version: 6.00 Build 0)  -->
<!DOCTYPE svg PUBLIC "-//W3C//DTD SVG 1.0//EN" "http://www.w3.org/TR/2001/REC-SVG-20010904/DTD/svg10.dtd">
<svg version="1.0" xmlns="http://www.w3.org/2000/svg" xmlns:xlink="http://www.w3.org/1999/xlink" x="0px" y="0px"
	 width="20px" height="20px" viewBox="0 0 15.906 16.201" enable-background="new 0 0 15.906 16.201" xml:space="preserve">
<g id="HP">
</g>
<g id="base_x5F_layer">
	<g id="balance">
	</g>
	<g id="balance_1_">
	</g>
	<g>
		<path fill="#BA3636" d="M5.852,14.213c0.147,0.356,0.389,0.599,0.73,0.74c0.349,0.145,0.689,0.139,1.032-0.01
			c0.342-0.148,0.587-0.384,0.729-0.725L5.85,13.185C5.709,13.526,5.709,13.869,5.852,14.213z"/>
		<path fill="#BA3636" d="M14.937,15.613c-0.226-1.098-0.281-2.199-0.177-3.289c0.104-1.087,0.42-2.594,0.942-4.518
			c0.304-1.12,0.241-2.198-0.001-2.978c-0.12-0.388-0.285-0.762-0.505-1.123c-0.431-0.709-0.844-1.13-1.358-1.543
			c0.077-0.415,0.011-0.811-0.199-1.195c-0.207-0.378-0.507-0.658-0.913-0.826c-0.398-0.165-0.809-0.183-1.221-0.06
			c-0.413,0.124-0.739,0.359-0.978,0.707C9.871,0.716,9.28,0.716,8.467,0.913C8.064,1.011,7.68,1.158,7.315,1.349
			c-0.718,0.377-1.522,1.1-2.101,2.106C4.221,5.184,3.371,6.467,2.674,7.311C1.978,8.153,1.163,8.892,0.229,9.512
			C0.139,9.572,0.072,9.637,0.035,9.727C0.005,9.8-0.007,9.872,0.004,9.961c0.024,0.192,0.122,0.326,0.3,0.4l13.978,5.798
			c0.179,0.074,0.342,0.047,0.495-0.07c0.063-0.06,0.109-0.126,0.14-0.199C14.954,15.801,14.957,15.711,14.937,15.613z M1.49,9.797
			c0.834-0.634,1.584-1.399,2.247-2.274C4.4,6.646,5.171,5.444,6.06,3.939c0.773-1.308,1.765-1.919,2.77-2.114
			c0.713-0.139,1.272-0.134,1.885-0.027c0.221,0.039,0.427-0.089,0.511-0.292l0.007-0.016c0.179-0.431,0.688-0.628,1.119-0.449
			c0.446,0.185,0.651,0.679,0.472,1.109l-0.007,0.016c-0.084,0.203-0.013,0.44,0.171,0.575c0.502,0.368,0.916,0.745,1.305,1.35
			c0.195,0.303,0.35,0.615,0.456,0.941c0.216,0.663,0.255,1.562,0.004,2.513c-0.445,1.69-0.744,3.078-0.892,4.168
			s-0.155,2.162-0.018,3.208L1.49,9.797z"/>
	</g>
</g>
</svg>
