<?xml version="1.0" encoding="utf-8"?>
<!-- Generator: Adobe Illustrator 17.0.0, SVG Export Plug-In . SVG Version: 6.00 Build 0)  -->
<!DOCTYPE svg PUBLIC "-//W3C//DTD SVG 1.1//EN" "http://www.w3.org/Graphics/SVG/1.1/DTD/svg11.dtd">
<svg version="1.1" id="Layer_1" xmlns="http://www.w3.org/2000/svg" xmlns:xlink="http://www.w3.org/1999/xlink" x="0px" y="0px"
	 width="1162.442px" height="641.968px" viewBox="0 0 1162.442 641.968" enable-background="new 0 0 1162.442 641.968"
	 xml:space="preserve">
<symbol  id="New_Symbol" viewBox="-35.563 -35.562 71.126 71.125">
	<path fill="#FFFFFF" stroke="#999999" stroke-miterlimit="10" d="M29.999,0.001c0-16.568-13.431-29.999-29.999-29.999
		S-29.998-16.567-29.998,0.001S-16.567,29.999,0,29.999S29.999,16.568,29.999,0.001z"/>
	<g>
		<path fill="#29ABE2" d="M0,32.563c17.984,0,32.563-14.579,32.563-32.562c0-17.984-14.579-32.562-32.563-32.562
			S-32.562-17.983-32.562,0.001C-32.562,17.984-17.983,32.563,0,32.563 M0,35.563c-19.609,0-35.563-15.953-35.563-35.562
			S-19.609-35.562,0-35.562S35.563-19.609,35.563,0.001S19.61,35.563,0,35.563L0,35.563z"/>
	</g>
</symbol>
<symbol  id="New_Symbol_1_2_" viewBox="-21.922 -21.922 43.845 43.845">
	<path fill="#FFFFFF" stroke="#999999" stroke-width="0.7188" stroke-miterlimit="10" d="M21.563,0
		c0-11.909-9.654-21.563-21.563-21.563S-21.563-11.909-21.563,0S-11.909,21.563,0,21.563S21.563,11.909,21.563,0z"/>
</symbol>
<symbol  id="New_Symbol_2" viewBox="-25.896 -25.897 51.793 51.793">
	<path fill="none" stroke="#999999" stroke-width="0.7188" stroke-miterlimit="10" d="M21.563-0.001
		c0-11.909-9.654-21.563-21.563-21.563S-21.563-11.91-21.563-0.001S-11.909,21.562,0,21.562S21.563,11.908,21.563-0.001z"/>
	<path fill="none" stroke="#C1272D" stroke-width="2" stroke-miterlimit="10" d="M24.897-0.001c0-13.75-11.147-24.896-24.897-24.896
		S-24.896-13.751-24.896-0.001S-13.75,24.896,0,24.896S24.897,13.749,24.897-0.001z"/>
</symbol>
<g id="HP">
</g>
<g id="base_x5F_layer">
	<g>
		<path fill="none" stroke="#999999" stroke-miterlimit="10" d="M988.701,179.86c12.808,14.464,22.991,31.678,29.54,51.141
			c17.495,51.992,4.63,106.881-29.036,145.411"/>
	</g>
	<g>
		<path fill="none" stroke="#999999" stroke-miterlimit="10" d="M989.993,374.854c-26.295,30.865-63.862,49.207-103.304,51.864"/>
	</g>
	<g id="New_Symbol_1">
	</g>
	<g id="New_Symbol_1_1_">
	</g>
	<g>
		<path fill="#2391AF" d="M811.595,544.847h-9.642v6.708h8.861v4.993h-8.861v10.614h-6.155v-27.326h15.797L811.595,544.847
			L811.595,544.847z"/>
		<path fill="#2391AF" d="M822.247,567.161h-6.155v-27.326h6.155V567.161z"/>
		<path fill="#2391AF" d="M853.041,567.161h-6.212l-11.262-17.169c-0.661-1.003-1.118-1.759-1.372-2.268h-0.076
			c0.102,0.966,0.153,2.439,0.153,4.421v15.016h-5.812v-27.326h6.631l10.843,16.636c0.495,0.75,0.953,1.493,1.372,2.229h0.076
			c-0.102-0.635-0.152-1.887-0.152-3.754v-15.111h5.812v27.326H853.041z"/>
		<path fill="#2391AF" d="M859.292,567.161v-27.326h9.68c9.706,0,14.559,4.44,14.559,13.32c0,4.256-1.324,7.654-3.973,10.195
			c-2.649,2.541-6.177,3.811-10.585,3.811H859.292z M865.447,544.847v17.322h3.049c2.668,0,4.761-0.8,6.279-2.401
			s2.277-3.779,2.277-6.536c0-2.604-0.753-4.653-2.258-6.145c-1.505-1.493-3.618-2.239-6.336-2.239L865.447,544.847L865.447,544.847
			z"/>
		<path fill="#29ABE2" d="M899.613,567.638c-3.913,0-7.102-1.274-9.566-3.821c-2.465-2.547-3.697-5.866-3.697-9.957
			c0-4.319,1.251-7.813,3.754-10.481c2.503-2.668,5.818-4.002,9.947-4.002c3.9,0,7.054,1.277,9.461,3.83
			c2.407,2.553,3.611,5.92,3.611,10.099c0,4.294-1.248,7.756-3.744,10.385C906.883,566.323,903.628,567.638,899.613,567.638z
			 M899.88,544.675c-2.16,0-3.875,0.81-5.145,2.43c-1.271,1.62-1.906,3.764-1.906,6.431c0,2.706,0.635,4.847,1.906,6.422
			c1.27,1.575,2.935,2.363,4.993,2.363c2.121,0,3.805-0.765,5.05-2.296s1.867-3.655,1.867-6.374c0-2.833-0.604-5.037-1.81-6.612
			C903.628,545.463,901.976,544.675,899.88,544.675z"/>
		<path fill="#29ABE2" d="M948.796,567.161h-6.079v-16.35c0-1.766,0.076-3.716,0.229-5.85h-0.152
			c-0.318,1.677-0.604,2.884-0.858,3.621l-6.403,18.579h-5.031l-6.517-18.389c-0.178-0.495-0.464-1.766-0.858-3.811h-0.172
			c0.165,2.693,0.248,5.056,0.248,7.089v15.111h-5.545v-27.326h9.013l5.583,16.197c0.445,1.296,0.769,2.598,0.972,3.906h0.114
			c0.343-1.512,0.705-2.826,1.086-3.945l5.583-16.159h8.785v27.327H948.796z"/>
		<path fill="#29ABE2" d="M971.396,567.161h-16.388v-27.326h15.759v5.012h-9.604v6.079h8.937v4.993h-8.937v6.25h10.233
			L971.396,567.161L971.396,567.161z"/>
	</g>
	
		<use xlink:href="#New_Symbol_2"  width="51.793" height="51.793" x="-25.896" y="-25.897" transform="matrix(1.2478 0 0 -1.2478 876.9847 277.7838)" overflow="visible"/>
	<circle fill="#FFFFFF" stroke="#666666" stroke-width="2.4957" stroke-miterlimit="10" cx="497.13" cy="277.783" r="26.907"/>
	<g>
		<g>
			
				<line fill="none" stroke="#3FA9F5" stroke-width="3.7435" stroke-miterlimit="10" x1="340.446" y1="277.784" x2="457.739" y2="277.784"/>
			<g>
				<polygon fill="#3FA9F5" points="445.335,293.094 442.781,290.353 456.302,277.788 442.781,265.219 445.335,262.477 
					461.799,277.788 				"/>
			</g>
		</g>
	</g>
	<g>
		<g>
			
				<line fill="none" stroke="#808080" stroke-width="3.7435" stroke-miterlimit="10" x1="524.037" y1="277.784" x2="634.622" y2="277.784"/>
			<g>
				<polygon fill="#808080" points="622.218,293.094 619.664,290.353 633.185,277.788 619.664,265.219 622.218,262.477 
					638.682,277.788 				"/>
			</g>
		</g>
	</g>
	<g>
		<g>
			
				<line fill="none" stroke="#3FA9F5" stroke-width="1.2478" stroke-miterlimit="10" x1="329.739" y1="301.269" x2="391.983" y2="375.127"/>
			<g>
				<polygon fill="#3FA9F5" points="385.417,375.254 385.566,374.014 391.674,374.762 391.973,368.615 393.22,368.677 
					392.855,376.163 				"/>
			</g>
		</g>
	</g>
	<g>
		<g>
			
				<line fill="none" stroke="#3FA9F5" stroke-width="1.2478" stroke-miterlimit="10" x1="309.805" y1="308.778" x2="310.123" y2="404.549"/>
			<g>
				<polygon fill="#3FA9F5" points="305.005,400.431 305.917,399.577 310.12,404.07 314.294,399.549 315.211,400.397 
					310.126,405.902 				"/>
			</g>
		</g>
	</g>
	<g>
		<g>
			
				<line fill="none" stroke="#3FA9F5" stroke-width="1.2478" stroke-miterlimit="10" x1="291.655" y1="302.337" x2="234.784" y2="379.772"/>
			<g>
				<polygon fill="#3FA9F5" points="233.119,373.419 234.359,373.274 235.067,379.385 241.111,378.233 241.344,379.46 
					233.982,380.862 				"/>
			</g>
		</g>
	</g>
	<g>
		<g>
			
				<line fill="none" stroke="#3FA9F5" stroke-width="1.2478" stroke-miterlimit="10" x1="281.117" y1="287.907" x2="190.777" y2="320.606"/>
			<g>
				<polygon fill="#3FA9F5" points="192.928,314.4 194.039,314.97 191.227,320.442 196.891,322.848 196.401,323.997 
					189.504,321.066 				"/>
			</g>
		</g>
	</g>
	<g>
		<g>
			
				<line fill="none" stroke="#3FA9F5" stroke-width="1.2478" stroke-miterlimit="10" x1="287.451" y1="257.096" x2="215.815" y2="193.075"/>
			<g>
				<polygon fill="#3FA9F5" points="222.298,192.025 222.324,193.273 216.172,193.393 216.741,199.52 215.498,199.634 
					214.806,192.172 				"/>
			</g>
		</g>
	</g>
	<g>
		<g>
			
				<line fill="none" stroke="#3FA9F5" stroke-width="1.2478" stroke-miterlimit="10" x1="329.535" y1="254.445" x2="390.593" y2="180.267"/>
			<g>
				<polygon fill="#3FA9F5" points="391.906,186.703 390.659,186.779 390.29,180.638 384.191,181.455 384.026,180.217 
					391.454,179.223 				"/>
			</g>
		</g>
	</g>
	<g>
		<g>
			
				<line fill="none" stroke="#4D4D4D" stroke-width="1.2478" stroke-miterlimit="10" x1="422.945" y1="140.467" x2="484.004" y2="66.289"/>
			<g>
				<polygon fill="#4D4D4D" points="485.316,72.725 484.07,72.801 483.701,66.66 477.602,67.477 477.437,66.239 484.865,65.245 				
					"/>
			</g>
		</g>
	</g>
	<g>
		<g>
			
				<line fill="none" stroke="#C1272D" stroke-width="1.2478" stroke-miterlimit="10" x1="502.881" y1="43.434" x2="830.343" y2="248.774"/>
			<g>
				<polygon fill="#C1272D" points="824.128,250.901 823.893,249.675 829.937,248.521 828.344,242.577 829.55,242.255 
					831.489,249.494 				"/>
			</g>
		</g>
	</g>
	<g>
		<g>
			
				<line fill="none" stroke="#C1272D" stroke-width="1.248" stroke-miterlimit="10" x1="899.804" y1="258.551" x2="900.554" y2="257.89"/>
			
				<line fill="none" stroke="#C1272D" stroke-width="1.248" stroke-miterlimit="10" stroke-dasharray="2.0121,2.0121" x1="902.065" y1="256.561" x2="963.298" y2="203.227"/>
			
				<line fill="none" stroke="#C1272D" stroke-width="1.248" stroke-miterlimit="10" x1="964.053" y1="202.562" x2="964.804" y2="201.902"/>
			<g>
				<polygon fill="#C1272D" points="965.07,208.465 963.827,208.341 964.445,202.218 958.293,202.05 958.328,200.801 
					965.821,201.009 				"/>
			</g>
		</g>
	</g>
	<g>
		<g>
			
				<line fill="none" stroke="#C1272D" stroke-width="1.248" stroke-miterlimit="10" x1="907.027" y1="277.845" x2="908.027" y2="277.842"/>
			
				<line fill="none" stroke="#C1272D" stroke-width="1.248" stroke-miterlimit="10" stroke-dasharray="2.0121,2.0121" x1="910.039" y1="277.836" x2="991.242" y2="277.982"/>
			
				<line fill="none" stroke="#C1272D" stroke-width="1.248" stroke-miterlimit="10" x1="992.249" y1="277.978" x2="993.248" y2="277.976"/>
			<g>
				<polygon fill="#C1272D" points="989.129,283.092 988.275,282.181 992.77,277.978 988.249,273.802 989.098,272.885 
					994.602,277.973 				"/>
			</g>
		</g>
	</g>
	<g>
		<g>
			
				<line fill="none" stroke="#C1272D" stroke-width="1.248" stroke-miterlimit="10" x1="899.767" y1="297.126" x2="900.522" y2="297.782"/>
			
				<line fill="none" stroke="#C1272D" stroke-width="1.248" stroke-miterlimit="10" stroke-dasharray="2.0121,2.0121" x1="902.041" y1="299.101" x2="963.081" y2="352.655"/>
			
				<line fill="none" stroke="#C1272D" stroke-width="1.248" stroke-miterlimit="10" x1="963.841" y1="353.315" x2="964.596" y2="353.971"/>
			<g>
				<polygon fill="#C1272D" points="958.127,355.112 958.084,353.864 964.234,353.658 963.579,347.538 964.821,347.406 
					965.617,354.86 				"/>
			</g>
		</g>
	</g>
	<g>
		<g>
			<path fill="none" stroke="#C1272D" stroke-width="1.2478" stroke-miterlimit="10" d="M310.888,567.875
				c0,0,110.555,21.608,209.077-24.959c118.824-56.163,295.751-218.036,310.534-231.655"/>
			<g>
				<polygon fill="#C1272D" points="830.823,317.81 829.579,317.7 830.128,311.572 823.976,311.472 823.997,310.223 831.49,310.347 
									"/>
			</g>
		</g>
	</g>
	<g>
		<g>
			
				<line fill="none" stroke="#4D4D4D" stroke-width="1.2478" stroke-miterlimit="10" x1="214.798" y1="407.772" x2="155.71" y2="485.39"/>
			<g>
				<polygon fill="#4D4D4D" points="154.153,479.009 155.396,478.885 155.999,485.008 162.062,483.96 162.274,485.191 
					154.889,486.466 				"/>
			</g>
		</g>
	</g>
	<g>
		<g>
			
				<line fill="none" stroke="#4D4D4D" stroke-width="1.2478" stroke-miterlimit="10" x1="310.888" y1="437.864" x2="310.152" y2="529.958"/>
			<g>
				<polygon fill="#4D4D4D" points="305.082,525.783 306.003,524.939 310.155,529.479 314.38,525.006 315.287,525.864 
					310.14,531.311 				"/>
			</g>
		</g>
	</g>
	<g>
		<g>
			
				<line fill="none" stroke="#C1272D" stroke-width="3.7435" stroke-miterlimit="10" x1="678.417" y1="277.784" x2="816.184" y2="277.992"/>
			<g>
				<polygon fill="#C1272D" points="803.757,293.283 801.207,290.538 814.747,277.993 801.245,265.404 803.803,262.666 
					820.244,278.001 				"/>
			</g>
		</g>
	</g>
	<g>
		<text transform="matrix(1 0 0 1 20.4698 136.4198)" fill="#666666" font-family="'SegoeUI-Semilight'" font-size="18.6603">Вход/регистрация</text>
	</g>
	<text transform="matrix(1 0 0 1 185.254 259.7784)" enable-background="new    "><tspan x="0" y="0" fill="#666666" font-family="'SegoeUI-Semilight'" font-size="18.6603">Страница</tspan><tspan x="0" y="22.393" fill="#666666" font-family="'SegoeUI-Semilight'" font-size="18.6603">города</tspan></text>
	<text transform="matrix(1 0 0 1 647.41 333.0454)" fill="#666666" font-family="'SegoeUI-Semilight'" font-size="18.6603">Выдача</text>
	<text transform="matrix(1 0 0 1 628.389 355.4384)" fill="#666666" font-family="'SegoeUI-Semilight'" font-size="18.6603">результатов</text>
	<text transform="matrix(1 0 0 1 470.2215 330.3418)" fill="#666666" font-family="'SegoeUI-Semilight'" font-size="18.6603">Поиск</text>
	<text transform="matrix(1 0 0 1 779.5548 430.3418)" fill="#666666" font-family="'SegoeUI-Semilight'" font-size="18.6603">Выгода</text>
	
		<use xlink:href="#New_Symbol_1_2_"  width="43.845" height="43.845" x="-21.922" y="-21.922" transform="matrix(1.1532 0.4766 0.4766 -1.1532 410.8312 154.0773)" overflow="visible"/>
	
		<use xlink:href="#New_Symbol_1_2_"  width="43.845" height="43.845" x="-21.922" y="-21.922" transform="matrix(1.1827 -0.398 -0.398 -1.1827 988.2706 181.7729)" overflow="visible"/>
	
		<use xlink:href="#New_Symbol_1_2_"  width="43.845" height="43.845" x="-21.922" y="-21.922" transform="matrix(1.1827 -0.398 -0.398 -1.1827 1023.7564 277.2187)" overflow="visible"/>
	
		<use xlink:href="#New_Symbol_1_2_"  width="43.845" height="43.845" x="-21.922" y="-21.922" transform="matrix(1.1827 -0.398 -0.398 -1.1827 988.317 374.3856)" overflow="visible"/>
	<text transform="matrix(1 0 0 1 22.4616 415.5303)" fill="#666666" font-family="'SegoeUI-Semilight'" font-size="18.6603">Все застройщики</text>
	<text transform="matrix(1 0 0 1 32.7685 559.2134)" fill="#666666" font-family="'SegoeUI-Semilight'" font-size="18.6603">Страница </text>
	<text transform="matrix(1 0 0 1 20.9285 581.6064)" fill="#666666" font-family="'SegoeUI-Semilight'" font-size="18.6603">застройщика</text>
	<text transform="matrix(1 0 0 1 451.4705 165.5697)" fill="#666666" font-family="'SegoeUI-Semilight'" font-size="18.6603">Личный</text>
	<text transform="matrix(1 0 0 1 451.6345 187.9627)" fill="#666666" font-family="'SegoeUI-Semilight'" font-size="18.6603">кабинет</text>
	
		<use xlink:href="#New_Symbol_1_2_"  width="43.845" height="43.845" x="-21.922" y="-21.922" transform="matrix(1.1532 0.4766 0.4766 -1.1532 503.6628 43.4346)" overflow="visible"/>
	<text transform="matrix(1 0 0 1 375.686 33.1342)" fill="#666666" font-family="'SegoeUI-Semilight'" font-size="18.6603">Таблица</text>
	<text transform="matrix(1 0 0 1 375.686 55.5272)" fill="#666666" font-family="'SegoeUI-Semilight'" font-size="18.6603">сравнения</text>
	
		<use xlink:href="#New_Symbol_1_2_"  width="43.845" height="43.845" x="-21.922" y="-21.922" transform="matrix(1.1532 0.4766 0.4766 -1.1532 195.3335 166.8502)" overflow="visible"/>
	<text transform="matrix(1 0 0 1 342.6866 605.5542)" fill="#666666" font-family="'SegoeUI-Semilight'" font-size="18.6603">Страница </text>
	<text transform="matrix(1 0 0 1 372.2406 627.9472)" fill="#666666" font-family="'SegoeUI-Semilight'" font-size="18.6603">ЖК</text>
	<text transform="matrix(1 0 0 1 338.2378 479.7845)" fill="#666666" font-family="'SegoeUI-Semilight'" font-size="18.6603">Все жилые</text>
	<text transform="matrix(1 0 0 1 338.2378 502.1775)" fill="#666666" font-family="'SegoeUI-Semilight'" font-size="18.6603">комплексы</text>
	<text transform="matrix(1 0 0 1 60.7949 338.7155)" fill="#666666" font-family="'SegoeUI-Semilight'" font-size="18.6603">Акции</text>
	<text transform="matrix(1 0 0 1 453.9046 405.9022)" fill="#666666" font-family="'SegoeUI-Semilight'" font-size="18.6603">Карта</text>
	<text transform="matrix(1 0 0 1 839.0341 337.3793)" fill="#4D4D4D" font-family="'SegoeUI-Semilight'" font-size="18.6603">Квартира</text>
	<text transform="matrix(1 0 0 1 1061.7601 284.778)" fill="#666666" font-family="'SegoeUI-Semilight'" font-size="18.6603">ID</text>
	<text transform="matrix(1 0 0 1 1029.3845 383.6149)" fill="#666666" font-family="'SegoeUI-Semilight'" font-size="18.6603">Бронь</text>
	<text transform="matrix(1 0 0 1 1031.5341 183.836)" fill="#666666" font-family="'SegoeUI-Semilight'" font-size="18.6603">Документы</text>
	
		<use xlink:href="#New_Symbol_1_2_"  width="43.845" height="43.845" x="-21.922" y="-21.922" transform="matrix(1.2478 0 0 -1.2478 160.6415 333.0454)" overflow="visible"/>
	
		<use xlink:href="#New_Symbol_1_2_"  width="43.845" height="43.845" x="-21.922" y="-21.922" transform="matrix(1.2478 0 0 -1.2478 412.2144 400.4293)" overflow="visible"/>
	
		<use xlink:href="#New_Symbol_1_2_"  width="43.845" height="43.845" x="-21.922" y="-21.922" transform="matrix(1.2478 0 0 -1.2478 134.5695 513.3747)" overflow="visible"/>
	
		<use xlink:href="#New_Symbol_1_2_"  width="43.845" height="43.845" x="-21.922" y="-21.922" transform="matrix(1.2478 0 0 -1.2478 310.1418 567.6381)" overflow="visible"/>
	
		<use xlink:href="#New_Symbol"  width="71.126" height="71.125" id="XMLID_9_" x="-35.563" y="-35.562" transform="matrix(0.897 0 0 -0.897 310.1411 277.7843)" overflow="visible"/>
	<g>
		<g>
			<path fill="none" stroke="#4D4D4D" stroke-width="1.2478" stroke-miterlimit="10" d="M390.36,416.197
				c-4.7,2.77-14.861,8.262-24.901,11.852c-9.385,3.356-19.307,5.798-25.893,7.102"/>
			<g>
				<polygon fill="#4D4D4D" points="342.575,429.294 343.594,430.016 340.032,435.033 345.296,438.219 344.649,439.287 
					338.238,435.405 				"/>
			</g>
		</g>
	</g>
	
		<use xlink:href="#New_Symbol_1_2_"  width="43.845" height="43.845" x="-21.922" y="-21.922" transform="matrix(1.2478 0 0 -1.2478 309.8059 437.8648)" overflow="visible"/>
	
		<use xlink:href="#New_Symbol_1_2_"  width="43.845" height="43.845" x="-21.922" y="-21.922" transform="matrix(1.1532 0.4766 0.4766 -1.1532 214.9588 406.4497)" overflow="visible"/>
	<g>
		<g>
			<path fill="none" stroke="#4D4D4D" stroke-width="1.2478" stroke-miterlimit="10" d="M271.31,567.702
				c-41.467-5.453-80.198-19.594-114.304-40.536"/>
			<g>
				<polygon fill="#4D4D4D" points="268.006,561.994 267.026,562.768 270.841,567.594 265.748,571.047 266.449,572.081 
					272.652,567.874 				"/>
			</g>
		</g>
	</g>
	<circle fill="#FFFFFF" stroke="#666666" stroke-width="2.4957" stroke-miterlimit="10" cx="678.417" cy="277.783" r="26.907"/>
	<circle fill="#FFFFFF" stroke="#666666" stroke-width="2.4957" stroke-miterlimit="10" cx="876.985" cy="424.795" r="26.907"/>
</g>
</svg>
