<?xml version="1.0" encoding="utf-8"?>
<!-- Generator: Adobe Illustrator 17.0.1, SVG Export Plug-In . SVG Version: 6.00 Build 0)  -->
<!DOCTYPE svg PUBLIC "-//W3C//DTD SVG 1.1//EN" "http://www.w3.org/Graphics/SVG/1.1/DTD/svg11.dtd">
<svg version="1.1" xmlns="http://www.w3.org/2000/svg" xmlns:xlink="http://www.w3.org/1999/xlink" x="0px" y="0px"
	 width="915px" height="38px" viewBox="0 0 759.917 31.651" enable-background="new 0 0 759.917 31.651"
	 xml:space="preserve">
<symbol  id="balance_4_" viewBox="-155.129 -155.129 310.259 310.259">
	<g>
		<path fill="#FFFFFF" stroke="#4D4D4D" stroke-width="4" stroke-miterlimit="10" d="M153.13,0
			c0-84.571-68.558-153.13-153.13-153.13S-153.129-84.571-153.129,0S-84.571,153.13,0,153.13S153.13,84.571,153.13,0z"/>
	</g>
	<path fill="#808080" d="M92.123-42L59.022,61.948l7.962,0.785l-0.68,6.898L9.586,64.037C7.144,72.932,0,89.38,0,89.38
		s-8.308-19.126-10.067-27.281l-56.917-5.614l0.68-6.898l7.399,0.73L-92.122-54h-4.294c4.579-32,28.442-38.238,38.447-38.238
		C-47.385-92.237-24.1-86-19.521-54h-4.294L-57.09,50.495l47.73,4.708c1.679-3.484,5.234-5.895,9.361-5.895
		c4.847,0,8.908,3.322,10.059,7.81l46.789,4.615L23.816-42h-4.294c4.579-32,28.442-38.238,38.447-38.238
		C68.553-80.237,91.837-74,96.417-42H92.123z M-27.336-54h-61.265l30.632,98.141L-27.336-54z M0,56.528
		c-1.755,0-3.177,1.422-3.177,3.177c0,1.755,1.422,3.177,3.177,3.177c1.755,0,3.177-1.422,3.177-3.177
		C3.177,57.951,1.755,56.528,0,56.528z M27.337-42l30.632,98.141L88.602-42H27.337z"/>
</symbol>
<g id="HP">
</g>
<g id="base_x5F_layer">
	<g id="balance">
	</g>
	<g id="balance_3_">
	</g>
	<g id="balance_2_">
	</g>
	<g id="balance_1_">
	</g>
	<g>
		<g>
			<g>
				<circle fill="#FFFFFF" stroke="#4D4D4D" stroke-width="0.4018" stroke-miterlimit="10" cx="379.186" cy="15.928" r="15.384"/>
			</g>
			<path fill="#6ABA6E" d="M388.441,20.148l-3.325-10.443l0.8-0.079l-0.068-0.693l-5.698,0.562
				c-0.245-0.894-0.963-2.546-0.963-2.546s-0.835,1.921-1.011,2.741l-5.718,0.564l0.068,0.693l0.743-0.073l-3.337,10.48H369.5
				c0.46,3.215,2.857,3.841,3.862,3.841c1.063,0,3.402-0.627,3.862-3.841h-0.431l-3.343-10.498l4.795-0.473
				c0.169,0.35,0.526,0.592,0.94,0.592c0.487,0,0.895-0.334,1.011-0.785l4.7-0.464l-3.319,10.421h-0.431
				c0.46,3.215,2.857,3.841,3.862,3.841c1.063,0,3.402-0.627,3.862-3.841H388.441z M376.44,21.353h-6.155l3.077-9.859L376.44,21.353
				z M379.186,10.249c-0.176,0-0.319-0.143-0.319-0.319c0-0.176,0.143-0.319,0.319-0.319s0.319,0.143,0.319,0.319
				C379.505,10.106,379.362,10.249,379.186,10.249z M381.932,20.148l3.077-9.859l3.077,9.859H381.932z"/>
		</g>
		<text transform="matrix(1 0 0 1 40.2422 13.0108)"><tspan x="0" y="0" fill="#808080" font-family="'SegoeUI-Semilight'" font-size="10.1519">Свободная</tspan><tspan x="0" y="14" fill="#808080" font-family="'SegoeUI-Semilight'" font-size="10.1519">квартира</tspan></text>
		<text transform="matrix(1 0 0 1 152.9088 13.0108)"><tspan x="0" y="0" fill="#808080" font-family="'SegoeUI-Semilight'" font-size="10.1519">Забронированная</tspan><tspan x="0" y="14" fill="#808080" font-family="'SegoeUI-Semilight'" font-size="10.1519">квартира</tspan></text>
		<text transform="matrix(1 0 0 1 296.4088 13.0108)"><tspan x="0" y="0" fill="#808080" font-family="'SegoeUI-Semilight'" font-size="10.1519">Добавить в </tspan><tspan x="0" y="14" fill="#808080" font-family="'SegoeUI-Semilight'" font-size="10.1519">сравнение</tspan></text>
		<text transform="matrix(1 0 0 1 403.7422 13.0108)"><tspan x="0" y="0" fill="#808080" font-family="'SegoeUI-Semilight'" font-size="10.1519">Добавлено в</tspan><tspan x="0" y="14" fill="#808080" font-family="'SegoeUI-Semilight'" font-size="10.1519">сравнение</tspan></text>
		<text transform="matrix(1 0 0 1 529.7422 13.0108)"><tspan x="0" y="0" fill="#808080" font-family="'SegoeUI-Semilight'" font-size="10.1519">Уведомить,если</tspan><tspan x="0" y="14" fill="#808080" font-family="'SegoeUI-Semilight'" font-size="10.1519">бронь снимется</tspan></text>
		<text transform="matrix(1 0 0 1 671.2422 13.0108)"><tspan x="0" y="0" fill="#808080" font-family="'SegoeUI-Semilight'" font-size="10.1519">Уведомление будет</tspan><tspan x="0" y="14" fill="#808080" font-family="'SegoeUI-Semilight'" font-size="10.1519">отправлено</tspan></text>
		
			<use xlink:href="#balance_4_"  width="310.259" height="310.259" id="XMLID_1_" x="-155.129" y="-155.129" transform="matrix(0.1013 0 0 -0.1013 271.9137 15.7114)" overflow="visible"/>
		<g>
			<g>
				<circle fill="#FFFFFF" cx="16.062" cy="16.246" r="15.139"/>
				<path fill="#4D4D4D" d="M16.062,31.651c-8.494,0-15.404-6.91-15.404-15.404S7.568,0.842,16.062,0.842s15.404,6.91,15.404,15.404
					S24.556,31.651,16.062,31.651z M16.062,1.373c-8.201,0-14.874,6.672-14.874,14.874S7.861,31.12,16.062,31.12
					c8.201,0,14.874-6.672,14.874-14.874S24.263,1.373,16.062,1.373z"/>
			</g>
			<g>
				<path fill="#4D4D4D" d="M15.953,19.831v-6.269c-0.114,0.098-0.242,0.192-0.384,0.283c-0.142,0.091-0.287,0.177-0.435,0.257
					c-0.149,0.08-0.297,0.151-0.445,0.215c-0.149,0.064-0.286,0.117-0.413,0.159v-0.552c0.385-0.124,0.752-0.294,1.103-0.511
					c0.35-0.217,0.69-0.467,1.019-0.751h0.181v7.169H15.953z"/>
			</g>
		</g>
		<g>
			<circle fill="#C64747" cx="127.182" cy="16.236" r="15.403"/>
			<text transform="matrix(1 0 0 1 119.1294 19.5863)" fill="#F2F2F2" font-family="'SegoeUI-Semilight'" font-size="10.1895">225</text>
		</g>
		<g>
			<g>
				<circle fill="#FFFFFF" stroke="#4D4D4D" stroke-width="0.3496" stroke-miterlimit="10" cx="505.483" cy="15.851" r="13.384"/>
			</g>
			<g>
				<g>
					<path fill="#7F7F7F" d="M502.817,20.83c0.105,0.255,0.278,0.428,0.522,0.529c0.25,0.104,0.493,0.099,0.738-0.007
						c0.245-0.106,0.42-0.275,0.521-0.518l-1.782-0.739C502.715,20.338,502.715,20.583,502.817,20.83z"/>
					<path fill="#7F7F7F" d="M509.313,21.831c-0.161-0.785-0.201-1.572-0.126-2.352c0.075-0.778,0.301-1.855,0.673-3.231
						c0.217-0.801,0.172-1.572-0.001-2.13c-0.086-0.277-0.204-0.545-0.361-0.803c-0.308-0.507-0.604-0.808-0.971-1.103
						c0.055-0.297,0.008-0.58-0.142-0.855c-0.148-0.271-0.363-0.47-0.653-0.591c-0.284-0.118-0.578-0.131-0.873-0.043
						c-0.295,0.088-0.528,0.257-0.7,0.506c-0.468-0.051-0.891-0.051-1.473,0.09c-0.288,0.07-0.562,0.175-0.823,0.312
						c-0.514,0.27-1.089,0.787-1.502,1.506c-0.71,1.236-1.318,2.153-1.817,2.757c-0.498,0.602-1.08,1.131-1.748,1.574
						c-0.064,0.042-0.112,0.09-0.139,0.153c-0.022,0.052-0.03,0.104-0.022,0.168c0.017,0.137,0.087,0.233,0.215,0.286l9.995,4.146
						c0.128,0.053,0.245,0.033,0.354-0.05c0.045-0.043,0.078-0.09,0.1-0.142C509.326,21.965,509.328,21.901,509.313,21.831z
						 M499.698,17.672c0.596-0.453,1.133-1,1.607-1.626c0.475-0.627,1.026-1.487,1.661-2.563c0.552-0.935,1.262-1.372,1.981-1.512
						c0.51-0.099,0.91-0.096,1.348-0.019c0.158,0.028,0.305-0.064,0.366-0.209l0.005-0.012c0.128-0.308,0.492-0.449,0.8-0.321
						c0.319,0.132,0.465,0.486,0.338,0.793l-0.005,0.012c-0.06,0.145-0.01,0.315,0.122,0.411c0.359,0.263,0.655,0.533,0.933,0.965
						c0.139,0.217,0.25,0.439,0.326,0.673c0.154,0.474,0.182,1.117,0.003,1.797c-0.318,1.208-0.532,2.201-0.638,2.98
						s-0.111,1.546-0.013,2.294L499.698,17.672z"/>
				</g>
			</g>
		</g>
		<g>
			<g>
				<circle fill="#FFFFFF" stroke="#4D4D4D" stroke-width="0.3496" stroke-miterlimit="10" cx="647.682" cy="15.602" r="13.384"/>
			</g>
			<g>
				<path fill="#BA3636" d="M645.092,19.998c0.105,0.255,0.278,0.428,0.522,0.529c0.25,0.104,0.493,0.099,0.738-0.007
					c0.245-0.106,0.42-0.275,0.521-0.518l-1.782-0.739C644.989,19.506,644.99,19.751,645.092,19.998z"/>
				<path fill="#BA3636" d="M651.588,20.998c-0.161-0.785-0.201-1.572-0.126-2.352c0.075-0.778,0.301-1.855,0.673-3.231
					c0.217-0.801,0.172-1.572-0.001-2.13c-0.086-0.277-0.204-0.545-0.361-0.803c-0.308-0.507-0.604-0.808-0.971-1.103
					c0.055-0.297,0.008-0.58-0.142-0.855c-0.148-0.271-0.363-0.47-0.653-0.591c-0.284-0.118-0.578-0.131-0.873-0.043
					c-0.295,0.088-0.528,0.257-0.7,0.506c-0.468-0.051-0.891-0.051-1.473,0.09c-0.288,0.07-0.562,0.175-0.823,0.312
					c-0.514,0.27-1.089,0.787-1.502,1.506c-0.71,1.236-1.318,2.153-1.817,2.757c-0.498,0.602-1.08,1.131-1.748,1.574
					c-0.064,0.042-0.112,0.09-0.139,0.153c-0.022,0.052-0.03,0.104-0.022,0.168c0.017,0.137,0.087,0.233,0.215,0.286l9.995,4.146
					c0.128,0.053,0.245,0.033,0.354-0.05c0.045-0.043,0.078-0.09,0.1-0.142C651.6,21.133,651.602,21.069,651.588,20.998z"/>
			</g>
		</g>
	</g>
</g>
</svg>
