<?xml version="1.0" encoding="utf-8"?>
<!-- Generator: Adobe Illustrator 17.0.1, SVG Export Plug-In . SVG Version: 6.00 Build 0)  -->
<!DOCTYPE svg PUBLIC "-//W3C//DTD SVG 1.1//EN" "http://www.w3.org/Graphics/SVG/1.1/DTD/svg11.dtd">
<svg version="1.1" id="Layer_1" xmlns="http://www.w3.org/2000/svg" xmlns:xlink="http://www.w3.org/1999/xlink" x="0px" y="0px"
	 width="44.424px" height="44.424px" viewBox="0 0 44.424 44.424" enable-background="new 0 0 44.424 44.424" xml:space="preserve">
<g>
	<circle fill="#333333" cx="22.212" cy="22.212" r="22.212"/>
	<g id="Padlock_4_">
		<g>
			<path fill="#FFFFFF" d="M27.979,20.102v-4.176c0-3.07-2.498-5.568-5.568-5.568s-5.568,2.498-5.568,5.568v4.176
				c-1.151,0-2.088,0.937-2.088,2.088v8.351c0,1.151,0.937,2.088,2.088,2.088h11.135c1.151,0,2.088-0.937,2.088-2.088V22.19
				C30.067,21.039,29.131,20.102,27.979,20.102z M18.236,15.927c0-2.303,1.873-4.176,4.176-4.176s4.176,1.873,4.176,4.176v4.176
				h-8.351V15.927z M28.675,30.541c0,0.384-0.312,0.696-0.696,0.696H16.844c-0.383,0-0.696-0.312-0.696-0.696V22.19
				c0-0.384,0.312-0.696,0.696-0.696h11.135c0.383,0,0.696,0.312,0.696,0.696V30.541z M21.716,26.173v1.585
				c0,0.385,0.312,0.696,0.696,0.696s0.696-0.311,0.696-0.696v-1.585c0.414-0.241,0.696-0.686,0.696-1.199
				c0-0.768-0.624-1.392-1.392-1.392s-1.392,0.624-1.392,1.392C21.02,25.487,21.301,25.931,21.716,26.173z"/>
		</g>
	</g>
</g>
<g id="balance_2_" opacity="0.6">
</g>
<g id="balance_1_" opacity="0.6">
</g>
<g id="balance">
</g>
</svg>
